<svg width="31" height="32" viewBox="0 0 31 32" fill="none" xmlns="http://www.w3.org/2000/svg">
<path d="M8.99 0H22.01C26.97 0 31 4.16 31 9.28V22.72C31 25.1812 30.0528 27.5416 28.3669 29.282C26.6809 31.0223 24.3943 32 22.01 32H8.99C4.03 32 0 27.84 0 22.72V9.28C0 6.81879 0.947158 4.45839 2.63311 2.71805C4.31906 0.977712 6.6057 0 8.99 0ZM8.68 3.2C7.20009 3.2 5.7808 3.80686 4.73434 4.88707C3.68789 5.96727 3.1 7.43235 3.1 8.96V23.04C3.1 26.224 5.5955 28.8 8.68 28.8H22.32C23.7999 28.8 25.2192 28.1931 26.2657 27.1129C27.3121 26.0327 27.9 24.5676 27.9 23.04V8.96C27.9 5.776 25.4045 3.2 22.32 3.2H8.68ZM23.6375 5.6C24.1514 5.6 24.6442 5.81071 25.0075 6.18579C25.3709 6.56086 25.575 7.06957 25.575 7.6C25.575 8.13043 25.3709 8.63914 25.0075 9.01421C24.6442 9.38929 24.1514 9.6 23.6375 9.6C23.1236 9.6 22.6308 9.38929 22.2675 9.01421C21.9041 8.63914 21.7 8.13043 21.7 7.6C21.7 7.06957 21.9041 6.56086 22.2675 6.18579C22.6308 5.81071 23.1236 5.6 23.6375 5.6ZM15.5 8C17.5554 8 19.5267 8.84285 20.9801 10.3431C22.4335 11.8434 23.25 13.8783 23.25 16C23.25 18.1217 22.4335 20.1566 20.9801 21.6569C19.5267 23.1571 17.5554 24 15.5 24C13.4446 24 11.4733 23.1571 10.0199 21.6569C8.56651 20.1566 7.75 18.1217 7.75 16C7.75 13.8783 8.56651 11.8434 10.0199 10.3431C11.4733 8.84285 13.4446 8 15.5 8ZM15.5 11.2C14.2667 11.2 13.084 11.7057 12.212 12.6059C11.3399 13.5061 10.85 14.727 10.85 16C10.85 17.273 11.3399 18.4939 12.212 19.3941C13.084 20.2943 14.2667 20.8 15.5 20.8C16.7333 20.8 17.916 20.2943 18.788 19.3941C19.6601 18.4939 20.15 17.273 20.15 16C20.15 14.727 19.6601 13.5061 18.788 12.6059C17.916 11.7057 16.7333 11.2 15.5 11.2Z" fill="black"/>
</svg>
